# This file uses centimeters as units for non-parametric coordinates.

g default
v 92.449703 9.273414 -30.038729
v 78.642420 9.273414 -57.137045
v 57.137054 9.273414 -78.642411
v 30.038731 9.273414 -92.449703
v 0.000001 9.273414 -97.207355
v -30.038729 9.273414 -92.449685
v -57.137045 9.273414 -78.642383
v -78.642383 9.273414 -57.137036
v -92.449676 9.273414 -30.038718
v -97.207336 9.273414 0.000004
v -92.449676 9.273414 30.038722
v -78.642383 9.273414 57.137036
v -57.137022 9.273414 78.642383
v -30.038720 9.273414 92.449657
v -0.000002 9.273414 97.207336
v 30.038711 9.273414 92.449657
v 57.137022 9.273414 78.642374
v 78.642365 9.273414 57.137036
v 92.449657 9.273414 30.038720
v 97.207318 9.273414 0.000004
v 51.424017 9.273414 -16.708691
v 43.743883 9.273414 -31.781792
v 31.781790 9.273414 -43.743883
v 16.708673 9.273414 -51.424013
v 0.000001 9.273414 -54.070401
v -16.708673 9.273414 -51.424008
v -31.781780 9.273414 -43.743874
v -43.743860 9.273414 -31.781780
v -51.423994 9.273414 -16.708671
v -54.070383 9.273414 -0.000002
v -51.423994 9.273414 16.708666
v -43.743860 9.273414 31.781762
v -31.781773 9.273414 43.743855
v -16.708671 9.273414 51.423985
v -0.000003 9.273414 54.070373
v 16.708661 9.273414 51.423985
v 31.781762 9.273414 43.743855
v 43.743851 9.273414 31.781762
v 51.423980 9.273414 16.708664
v 54.070364 9.273414 -0.000013
vt 0.620367 0.539110
vt 0.602390 0.574391
vt 0.556953 0.541379
vt 0.566953 0.521754
vt 0.574391 0.602390
vt 0.541379 0.556953
vt 0.539110 0.620367
vt 0.521754 0.566953
vt 0.500000 0.626561
vt 0.500000 0.570398
vt 0.460890 0.620367
vt 0.478246 0.566953
vt 0.425609 0.602390
vt 0.458621 0.556953
vt 0.397610 0.574391
vt 0.443047 0.541379
vt 0.379633 0.539110
vt 0.433047 0.521754
vt 0.373438 0.500000
vt 0.429602 0.500000
vt 0.379633 0.460890
vt 0.433047 0.478246
vt 0.397610 0.425609
vt 0.443047 0.458621
vt 0.425609 0.397610
vt 0.458621 0.443047
vt 0.460890 0.379633
vt 0.478246 0.433047
vt 0.500000 0.373439
vt 0.500000 0.429602
vt 0.539110 0.379633
vt 0.521754 0.433047
vt 0.574391 0.397610
vt 0.541379 0.443047
vt 0.602390 0.425609
vt 0.556953 0.458621
vt 0.620367 0.460890
vt 0.566953 0.478246
vt 0.626561 0.500000
vt 0.570398 0.500000
vn 0.000000 1.000000 0.000000
vn 0.000000 1.000000 0.000000
vn 0.000000 1.000000 0.000000
vn 0.000000 1.000000 0.000000
vn 0.000000 1.000000 0.000000
vn 0.000000 1.000000 0.000000
vn 0.000000 1.000000 -0.000000
vn 0.000000 1.000000 -0.000000
vn 0.000000 1.000000 -0.000000
vn 0.000000 1.000000 -0.000000
vn 0.000000 1.000000 0.000000
vn 0.000000 1.000000 0.000000
vn 0.000000 1.000000 0.000000
vn 0.000000 1.000000 0.000000
vn 0.000000 1.000000 0.000000
vn 0.000000 1.000000 0.000000
vn 0.000000 1.000000 0.000000
vn 0.000000 1.000000 0.000000
vn 0.000000 1.000000 0.000000
vn 0.000000 1.000000 0.000000
vn 0.000000 1.000000 0.000000
vn 0.000000 1.000000 0.000000
vn 0.000000 1.000000 -0.000000
vn 0.000000 1.000000 -0.000000
vn 0.000000 1.000000 -0.000000
vn 0.000000 1.000000 -0.000000
vn 0.000000 1.000000 -0.000000
vn 0.000000 1.000000 -0.000000
vn 0.000000 1.000000 0.000000
vn 0.000000 1.000000 0.000000
vn 0.000000 1.000000 -0.000000
vn 0.000000 1.000000 -0.000000
vn 0.000000 1.000000 0.000000
vn 0.000000 1.000000 0.000000
vn 0.000000 1.000000 0.000000
vn 0.000000 1.000000 0.000000
vn 0.000000 1.000000 0.000000
vn 0.000000 1.000000 0.000000
vn 0.000000 1.000000 0.000000
vn 0.000000 1.000000 0.000000
s 1
g pCylinder4
f 1/1/1 2/2/2 22/3/3 21/4/4
f 2/2/2 3/5/5 23/6/6 22/3/3
f 3/5/5 4/7/7 24/8/8 23/6/6
f 4/7/7 5/9/9 25/10/10 24/8/8
f 5/9/9 6/11/11 26/12/12 25/10/10
f 6/11/11 7/13/13 27/14/14 26/12/12
f 7/13/13 8/15/15 28/16/16 27/14/14
f 8/15/15 9/17/17 29/18/18 28/16/16
f 9/17/17 10/19/19 30/20/20 29/18/18
f 10/19/19 11/21/21 31/22/22 30/20/20
f 11/21/21 12/23/23 32/24/24 31/22/22
f 12/23/23 13/25/25 33/26/26 32/24/24
f 13/25/25 14/27/27 34/28/28 33/26/26
f 14/27/27 15/29/29 35/30/30 34/28/28
f 15/29/29 16/31/31 36/32/32 35/30/30
f 16/31/31 17/33/33 37/34/34 36/32/32
f 17/33/33 18/35/35 38/36/36 37/34/34
f 18/35/35 19/37/37 39/38/38 38/36/36
f 19/37/37 20/39/39 40/40/40 39/38/38
f 20/39/39 1/1/1 21/4/4 40/40/40
