# Blender v2.83.3 OBJ File: ''
# www.blender.org
mtllib alttari-lp.mtl
o Cone
v 0.000000 0.633849 -0.489281
v 0.033420 0.633849 -0.489281
v -0.423729 0.633849 0.244640
v -0.407019 0.633849 0.273583
v 0.407020 0.633849 0.273583
v -0.440439 0.633849 0.215698
v -0.033420 0.633849 -0.489281
v 0.423729 0.633849 0.244640
v 0.440439 0.633849 0.215698
v -0.000000 0.388372 -0.822416
v 0.164142 0.647956 -0.715698
v -0.164142 0.647956 -0.715698
v 0.712233 0.388371 0.411208
v 0.537742 0.647955 0.500000
v 0.701884 0.647956 0.215698
v -0.159277 -0.544955 0.091958
v 0.159277 -0.544955 0.091958
v -0.000000 -0.544955 -0.183918
v -0.712233 0.388371 0.411208
v -0.537742 0.647956 0.500000
v -0.701883 0.647956 0.215698
v 0.082071 0.518164 -0.769057
v 0.000000 0.647956 -0.715698
v -0.082071 0.518164 -0.769057
v 0.624987 0.518163 0.455604
v 0.707058 0.518163 0.313453
v 0.619813 0.647956 0.357849
v -0.000000 -0.544955 0.091958
v 0.079638 -0.544955 -0.045980
v -0.079639 -0.544955 -0.045980
v -0.624987 0.518163 0.455604
v -0.619813 0.647956 0.357849
v -0.707058 0.518163 0.313453
v 0.650619 0.561427 0.375635
v 0.000000 0.561428 -0.751271
v -0.000000 -0.544955 -0.000000
v -0.650619 0.561427 0.375635
v 0.296643 0.169779 -0.159073
v 0.286129 0.152109 -0.165197
v 0.286083 0.169779 -0.177364
v 0.254396 0.178560 -0.146876
v -0.010560 0.169778 0.336437
v 0.000000 0.152108 0.330393
v 0.010561 0.169778 0.336437
v 0.000000 0.178560 0.293752
v -0.286083 0.169779 -0.177364
v -0.286129 0.152109 -0.165197
v -0.296643 0.169779 -0.159073
v -0.254396 0.178560 -0.146876
v 0.000000 0.647956 -0.012208
v -0.010573 0.647956 0.006104
v 0.010573 0.647956 0.006104
v 0.000000 0.603813 0.000000
v -0.438297 0.647956 -0.240846
v -0.427728 0.647956 -0.259153
v -0.380369 0.603813 -0.219606
v -0.010570 0.647956 0.500000
v 0.010570 0.647956 0.500000
v 0.000000 0.603813 0.439212
v 0.438298 0.647956 -0.240846
v 0.427728 0.647956 -0.259154
v 0.380369 0.603813 -0.219606
v -0.000000 -0.087081 -0.497154
v -0.000000 -0.069377 -0.509265
v -0.000000 -0.034085 -0.442031
v -0.430548 -0.087081 0.248577
v -0.441036 -0.069378 0.254632
v -0.382810 -0.034085 0.221015
v 0.441036 -0.069378 0.254632
v 0.430548 -0.087081 0.248577
v 0.382810 -0.034085 0.221015
v 0.452718 0.647956 0.215698
v 0.251424 0.647956 -0.132953
v 0.240526 0.633849 -0.130562
v 0.428161 0.647956 0.215698
v 0.432938 0.647956 0.249957
v 0.413159 0.647956 0.284216
v 0.233006 0.647956 -0.122320
v 0.414521 0.647956 0.239324
v 0.400880 0.647956 0.262949
v 0.039559 0.647956 -0.499914
v 0.000000 0.647956 -0.499914
v -0.039559 0.647956 -0.499914
v 0.233333 0.633849 -0.143021
v 0.027281 0.647956 -0.478647
v 0.240853 0.647956 -0.151263
v -0.027280 0.647956 -0.478647
v 0.000000 0.647956 -0.478647
v 0.222435 0.647956 -0.140629
v 0.010571 0.647956 0.284216
v 0.007193 0.633849 0.273583
v 0.010571 0.647956 0.262949
v -0.233333 0.633849 -0.143021
v -0.240853 0.647956 -0.151263
v -0.222435 0.647956 -0.140629
v -0.452717 0.647956 0.215698
v -0.251424 0.647956 -0.132953
v -0.240526 0.633849 -0.130562
v -0.233006 0.647956 -0.122320
v -0.428161 0.647956 0.215698
v -0.414521 0.647956 0.239324
v -0.432938 0.647956 0.249957
v -0.413159 0.647956 0.284216
v -0.400880 0.647956 0.262949
v -0.007193 0.633849 0.273583
v -0.010571 0.647956 0.284216
v -0.010571 0.647956 0.262949
vt 0.770727 0.894578
vt 0.775298 0.885004
vt 0.780106 0.888165
vt 0.508514 0.746795
vt 0.515623 0.735467
vt 0.514759 0.746795
vt 0.760150 0.893750
vt 0.760484 0.899494
vt 0.760484 0.594096
vt 0.773849 0.593604
vt 0.770727 0.599013
vt 0.515623 0.758124
vt 0.641536 0.849865
vt 0.640856 0.843187
vt 0.618078 0.657270
vt 0.624201 0.660020
vt 0.780106 0.605425
vt 0.796599 0.733252
vt 0.791156 0.737180
vt 0.957282 0.771543
vt 0.910145 0.745027
vt 0.957282 0.717460
vt 0.910145 0.636410
vt 0.957282 0.662926
vt 0.925857 0.663276
vt 0.957282 0.717009
vt 0.957282 0.554309
vt 0.910145 0.527793
vt 0.957282 0.500226
vt 0.957282 0.608392
vt 0.925857 0.554659
vt 0.924193 0.879065
vt 0.863008 0.879065
vt 0.908897 0.852571
vt 0.954786 0.879065
vt 0.908897 0.905559
vt 0.925857 0.771893
vt 0.957282 0.825626
vt 0.910145 0.799110
vt 0.954786 0.826077
vt 0.910145 0.581876
vt 0.811773 0.527919
vt 0.760601 0.587045
vt 0.264564 0.733031
vt 0.333829 0.500226
vt 0.386058 0.528586
vt 0.910145 0.690493
vt 0.863008 0.663977
vt 0.786154 0.891792
vt 0.796599 0.760339
vt 0.862557 0.762473
vt 0.610405 0.908053
vt 0.760602 0.906545
vt 0.432668 0.746795
vt 0.509458 0.761548
vt 0.583251 0.601215
vt 0.509458 0.732043
vt 0.430063 0.766904
vt 0.387275 0.973459
vt 0.264584 0.762836
vt 0.001992 0.693525
vt 0.238668 0.748115
vt 0.000898 0.752948
vt 0.157431 0.892772
vt 0.430470 0.733724
vt 0.432216 0.553989
vt 0.786153 0.601798
vt 0.819718 0.473459
vt 0.862505 0.266904
vt 0.864659 0.447558
vt 0.387276 0.026541
vt 0.430063 0.233096
vt 0.264585 0.237164
vt 0.186495 0.091214
vt 0.342576 0.000226
vt 0.333829 0.499774
vt 0.264564 0.266970
vt 0.386059 0.471413
vt 0.430470 0.266276
vt 0.432217 0.446011
vt 0.001992 0.306475
vt 0.238669 0.251885
vt 0.152570 0.396435
vt 0.862912 0.233724
vt 0.818501 0.028587
vt 0.864659 0.053989
vt 0.186495 0.908785
vt 0.342576 0.999775
vt 0.434435 0.193524
vt 0.671111 0.248115
vt 0.433340 0.252947
vt 0.618937 0.408786
vt 0.697027 0.262835
vt 0.697007 0.233030
vt 0.766271 0.000226
vt 0.589873 0.392772
vt 0.842496 0.746796
vt 0.685404 0.746796
vt 0.791156 0.756411
vt 0.178266 0.385348
vt 0.255804 0.252239
vt 0.182792 0.119036
vt 0.407688 0.250041
vt 0.178265 0.614652
vt 0.181297 0.586832
vt 0.152570 0.603566
vt 0.606859 0.882841
vt 0.624201 0.833571
vt 0.647469 0.839598
vt 0.606859 0.610751
vt 0.640856 0.650404
vt 0.624003 0.667541
vt 0.407689 0.749959
vt 0.255803 0.747761
vt 0.182792 0.880964
vt 0.610708 0.114652
vt 0.613740 0.086831
vt 0.585013 0.103565
vt 0.615234 0.380964
vt 0.840131 0.249959
vt 0.688246 0.247760
vt 0.157431 0.107228
vt 0.000898 0.247052
vt 0.000226 0.194370
vt 0.520765 0.755541
vt 0.663678 0.746796
vt 0.624003 0.826050
vt 0.775298 0.608587
vt 0.784741 0.733247
vt 0.520765 0.738050
vt 0.520736 0.746795
vt 0.696268 0.765612
vt 0.784741 0.760344
vt 0.767739 0.889402
vt 0.641536 0.643726
vt 0.696268 0.727980
vt 0.767738 0.604189
vt 0.760150 0.599841
vt 0.647469 0.653993
vt 0.773850 0.899986
vt 0.618078 0.836321
vt 0.957282 0.608843
vt 0.954786 0.932052
vt 0.863008 0.772594
vt 0.863008 0.555360
vt 0.610404 0.585538
vt 0.763740 0.500226
vt 0.859773 0.937921
vt 0.811773 0.965672
vt 0.763741 0.993365
vt 0.583251 0.892376
vt 0.432701 0.802239
vt 0.432701 0.691352
vt 0.432216 0.947558
vt 0.000226 0.805630
vt 0.859772 0.555670
vt 0.862557 0.731119
vt 0.432217 0.052442
vt 0.181298 0.413168
vt 0.775018 0.499774
vt 0.432668 0.305630
vn -0.0000 0.6019 -0.7986
vn 0.6916 0.6019 -0.3993
vn -0.6916 0.6019 -0.3993
vn 0.6916 0.6019 0.3993
vn -0.6916 0.6019 0.3993
vn -0.0000 0.3802 -0.9249
vn -0.8010 0.3802 0.4624
vn 0.8010 0.3802 0.4624
vn -0.0000 -1.0000 -0.0000
vn 0.0000 1.0000 0.0000
vn -0.8194 -0.3236 -0.4731
vn 0.0000 -0.3236 0.9462
vn 0.8194 -0.3236 -0.4731
vn -0.4862 0.2329 -0.8422
vn 0.4862 0.2329 0.8422
vn 0.6802 -0.0768 0.7290
vn -0.2913 -0.0768 -0.9536
vn -0.2955 -0.8682 -0.3987
vn 0.6868 0.7069 0.1689
vn 0.1970 -0.8681 0.4557
vn 0.1975 0.7067 -0.6794
vn -0.6803 -0.0768 0.7289
vn 0.2911 -0.0768 -0.9536
vn 0.4862 0.2329 -0.8422
vn -0.4863 0.2329 0.8422
vn -0.9725 0.2329 0.0000
vn 0.9725 0.2329 0.0000
vn -0.1975 -0.8682 0.4553
vn -0.1971 0.7069 -0.6792
vn -0.6868 0.7069 0.1689
vn 0.2955 -0.8682 -0.3987
vn 0.9714 -0.0768 0.2247
vn -0.9714 -0.0768 0.2247
vn -0.4931 -0.8681 -0.0572
vn 0.4896 0.7067 0.5107
vn 0.4930 -0.8682 -0.0566
vn -0.4897 0.7069 0.5103
vn -0.0000 0.6019 0.7986
vn -0.4863 0.2329 -0.8422
vn 0.4863 0.2329 0.8422
vn 0.6803 -0.0768 0.7289
vn -0.2911 -0.0768 -0.9536
vn -0.2961 -0.8681 -0.3985
vn 0.6871 0.7067 0.1687
vn 0.1975 -0.8682 0.4553
vn 0.1971 0.7069 -0.6792
vn -0.6802 -0.0768 0.7290
vn 0.2913 -0.0768 -0.9536
vn 0.4863 0.2329 -0.8422
vn -0.4862 0.2329 0.8422
vn -0.1970 -0.8681 0.4557
vn -0.1975 0.7067 -0.6794
vn -0.6871 0.7067 0.1687
vn 0.2961 -0.8681 -0.3985
vn 0.9714 -0.0768 0.2245
vn -0.9714 -0.0768 0.2245
vn -0.4930 -0.8682 -0.0566
vn 0.4897 0.7069 0.5103
vn 0.4931 -0.8681 -0.0572
vn -0.4896 0.7067 0.5107
usemtl None
s off
f 1/1/1 85/2/1 2/3/1
f 102/4/2 4/5/2 3/6/2
f 87/7/1 1/1/1 7/8/1
f 5/9/3 76/10/3 8/11/3
f 6/12/2 102/4/2 3/6/2
f 7/8/4 94/13/4 93/14/4
f 4/5/1 106/15/1 105/16/1
f 9/17/5 73/18/5 74/19/5
f 76/10/3 9/17/3 8/11/3
f 22/20/6 23/21/6 11/22/6
f 32/23/7 33/24/7 37/25/7
f 19/26/7 37/25/7 33/24/7
f 25/27/8 27/28/8 14/29/8
f 13/30/8 34/31/8 25/27/8
f 36/32/9 17/33/9 28/34/9
f 30/35/9 29/36/9 36/32/9
f 35/37/6 10/38/6 24/39/6
f 24/39/6 23/21/6 35/37/6
f 36/32/9 16/40/9 30/35/9
f 26/41/8 27/28/8 34/31/8
f 27/42/10 76/10/10 77/43/10
f 46/44/11 12/45/11 24/46/11
f 32/23/7 31/47/7 20/48/7
f 81/49/10 86/50/10 61/51/10
f 55/52/10 94/13/10 83/53/10
f 32/54/10 102/4/10 96/55/10
f 57/56/10 106/15/10 103/57/10
f 63/58/11 30/59/11 47/60/11
f 21/61/11 48/62/11 33/63/11
f 67/64/11 33/63/11 48/62/11
f 64/65/11 24/46/11 10/66/11
f 72/67/10 76/10/10 27/42/10
f 28/68/12 66/69/12 16/70/12
f 29/71/13 63/72/13 39/73/13
f 29/71/13 70/74/13 17/75/13
f 11/76/13 40/77/13 22/78/13
f 22/78/13 64/79/13 10/80/13
f 15/81/13 38/82/13 60/83/13
f 67/84/12 31/85/12 19/86/12
f 66/87/11 30/59/11 16/88/11
f 14/89/12 44/90/12 25/91/12
f 28/68/12 70/92/12 43/93/12
f 42/94/12 20/95/12 31/85/12
f 69/96/12 25/91/12 44/90/12
f 62/97/14 53/98/14 74/19/14
f 62/97/15 86/50/15 84/99/15
f 40/77/16 62/100/16 41/101/16
f 62/100/17 38/82/17 41/101/17
f 38/82/18 71/102/18 41/101/18
f 71/102/19 39/73/19 41/101/19
f 40/77/20 65/103/20 64/79/20
f 65/103/21 39/73/21 63/72/21
f 46/44/22 56/104/22 55/105/22
f 56/104/23 48/62/23 54/106/23
f 53/98/24 56/107/24 98/108/24
f 53/98/25 95/109/25 93/14/25
f 53/98/26 59/110/26 91/111/26
f 53/98/27 107/112/27 105/16/27
f 46/44/28 65/113/28 49/114/28
f 65/113/29 47/60/29 49/114/29
f 47/60/30 68/115/30 49/114/30
f 68/115/31 48/62/31 49/114/31
f 42/94/32 59/116/32 57/117/32
f 59/116/33 44/90/33 58/118/33
f 44/90/34 71/119/34 69/96/34
f 71/119/35 43/93/35 70/92/35
f 42/94/36 68/120/36 45/121/36
f 68/120/37 43/93/37 45/121/37
f 69/122/13 26/123/13 13/124/13
f 100/125/10 51/126/10 99/127/10
f 75/128/2 74/19/2 78/129/2
f 3/6/5 104/130/5 101/131/5
f 104/130/38 105/16/38 107/112/38
f 85/2/10 50/132/10 89/133/10
f 87/7/10 50/132/10 88/134/10
f 5/9/1 90/135/1 77/43/1
f 75/128/10 52/136/10 79/137/10
f 80/138/10 52/136/10 92/139/10
f 80/138/4 8/11/4 79/137/4
f 8/11/4 75/128/4 79/137/4
f 82/140/38 2/3/38 81/49/38
f 98/108/3 100/125/3 99/127/3
f 84/99/2 85/2/2 89/133/2
f 7/8/38 82/140/38 83/53/38
f 104/130/10 51/126/10 101/131/10
f 91/111/38 80/138/38 92/139/38
f 87/7/3 93/14/3 95/109/3
f 2/3/5 86/50/5 81/49/5
f 100/125/5 3/6/5 101/131/5
f 6/12/4 97/141/4 96/55/4
f 1/1/1 88/134/1 85/2/1
f 102/4/2 103/57/2 4/5/2
f 87/7/1 88/134/1 1/1/1
f 5/9/3 77/43/3 76/10/3
f 6/12/2 96/55/2 102/4/2
f 7/8/4 83/53/4 94/13/4
f 4/5/1 103/57/1 106/15/1
f 9/17/5 72/67/5 73/18/5
f 76/10/3 72/67/3 9/17/3
f 22/20/6 35/37/6 23/21/6
f 32/23/7 21/142/7 33/24/7
f 19/26/7 31/47/7 37/25/7
f 25/27/8 34/31/8 27/28/8
f 13/30/8 26/41/8 34/31/8
f 36/32/9 29/36/9 17/33/9
f 30/35/9 18/143/9 29/36/9
f 35/37/6 22/20/6 10/38/6
f 24/39/6 12/144/6 23/21/6
f 36/32/9 28/34/9 16/40/9
f 26/41/8 15/145/8 27/28/8
f 90/135/10 58/146/10 77/43/10
f 58/146/10 14/147/10 77/43/10
f 14/147/10 27/42/10 77/43/10
f 46/44/11 55/105/11 12/45/11
f 32/23/7 37/25/7 31/47/7
f 61/51/10 11/148/10 81/49/10
f 11/148/10 23/149/10 81/49/10
f 23/149/10 82/140/10 81/49/10
f 82/140/10 23/149/10 83/53/10
f 23/149/10 12/150/10 83/53/10
f 12/150/10 55/52/10 83/53/10
f 97/141/10 54/151/10 96/55/10
f 54/151/10 21/152/10 96/55/10
f 21/152/10 32/54/10 96/55/10
f 102/4/10 32/54/10 103/57/10
f 32/54/10 20/153/10 103/57/10
f 20/153/10 57/56/10 103/57/10
f 63/58/11 18/154/11 30/59/11
f 21/61/11 54/106/11 48/62/11
f 67/64/11 19/155/11 33/63/11
f 64/65/11 46/44/11 24/46/11
f 27/42/10 15/156/10 72/67/10
f 15/156/10 60/157/10 72/67/10
f 60/157/10 73/18/10 72/67/10
f 28/68/12 43/93/12 66/69/12
f 29/71/13 18/158/13 63/72/13
f 29/71/13 39/73/13 70/74/13
f 11/76/13 61/159/13 40/77/13
f 22/78/13 40/77/13 64/79/13
f 15/81/13 26/123/13 38/82/13
f 67/84/12 42/94/12 31/85/12
f 66/87/11 47/60/11 30/59/11
f 14/89/12 58/118/12 44/90/12
f 28/68/12 17/160/12 70/92/12
f 42/94/12 57/117/12 20/95/12
f 69/96/12 13/161/12 25/91/12
f 53/98/39 52/136/39 78/129/39
f 74/19/39 73/18/39 62/97/39
f 73/18/39 60/157/39 62/97/39
f 53/98/39 78/129/39 74/19/39
f 50/132/15 53/98/15 89/133/15
f 53/98/15 62/97/15 84/99/15
f 62/97/15 61/51/15 86/50/15
f 84/99/40 89/133/40 53/98/40
f 40/77/41 61/159/41 62/100/41
f 62/100/42 60/83/42 38/82/42
f 38/82/43 69/122/43 71/102/43
f 71/102/44 70/74/44 39/73/44
f 40/77/45 41/101/45 65/103/45
f 65/103/46 41/101/46 39/73/46
f 46/44/47 49/114/47 56/104/47
f 56/104/48 49/114/48 48/62/48
f 56/107/49 54/151/49 97/141/49
f 98/108/49 99/127/49 53/98/49
f 99/127/49 51/126/49 53/98/49
f 56/107/49 97/141/49 98/108/49
f 55/52/50 56/107/50 94/13/50
f 56/107/25 53/98/25 93/14/25
f 53/98/50 50/132/50 95/109/50
f 93/14/25 94/13/25 56/107/25
f 59/110/26 58/146/26 90/135/26
f 91/111/26 92/139/26 53/98/26
f 92/139/26 52/136/26 53/98/26
f 59/110/26 90/135/26 91/111/26
f 57/56/27 59/110/27 106/15/27
f 59/110/27 53/98/27 105/16/27
f 53/98/27 51/126/27 107/112/27
f 105/16/27 106/15/27 59/110/27
f 46/44/51 64/65/51 65/113/51
f 65/113/52 63/58/52 47/60/52
f 47/60/53 66/87/53 68/115/53
f 68/115/54 67/64/54 48/62/54
f 42/94/55 45/121/55 59/116/55
f 59/116/56 45/121/56 44/90/56
f 44/90/57 45/121/57 71/119/57
f 71/119/58 45/121/58 43/93/58
f 42/94/59 67/84/59 68/120/59
f 68/120/60 66/69/60 43/93/60
f 69/122/13 38/82/13 26/123/13
f 100/125/10 101/131/10 51/126/10
f 75/128/2 9/17/2 74/19/2
f 3/6/5 4/5/5 104/130/5
f 104/130/38 4/5/38 105/16/38
f 85/2/10 88/134/10 50/132/10
f 87/7/10 95/109/10 50/132/10
f 5/9/1 91/111/1 90/135/1
f 75/128/10 78/129/10 52/136/10
f 80/138/10 79/137/10 52/136/10
f 80/138/4 5/9/4 8/11/4
f 8/11/4 9/17/4 75/128/4
f 82/140/38 1/1/38 2/3/38
f 98/108/3 6/12/3 100/125/3
f 84/99/2 2/3/2 85/2/2
f 7/8/38 1/1/38 82/140/38
f 104/130/10 107/112/10 51/126/10
f 91/111/38 5/9/38 80/138/38
f 87/7/3 7/8/3 93/14/3
f 2/3/5 84/99/5 86/50/5
f 100/125/5 6/12/5 3/6/5
f 6/12/4 98/108/4 97/141/4
