# This file uses centimeters as units for non-parametric coordinates.

g default
v 110.362971 34.064140 -35.859106
v 93.880367 34.064140 -68.208066
v 68.208066 34.064140 -93.880346
v 35.859099 34.064140 -110.362957
v 0.000000 34.064140 -116.042467
v -35.859099 34.064140 -110.362957
v -68.208045 34.064140 -93.880326
v -93.880312 34.064140 -68.208038
v -110.362922 34.064140 -35.859089
v -116.042453 34.064140 0.000000
v -110.362922 34.064140 35.859089
v -93.880312 34.064140 68.208038
v -68.208038 34.064140 93.880305
v -35.859089 34.064140 110.362915
v -0.000003 34.064140 116.042426
v 35.859078 34.064140 110.362901
v 68.208017 34.064140 93.880298
v 93.880298 34.064140 68.208031
v 110.362901 34.064140 35.859078
v 116.042426 34.064140 0.000000
v 60.227740 34.064140 -19.569237
v 51.232798 34.064140 -37.222803
v 37.222806 34.064140 -51.232778
v 19.569194 34.064140 -60.227754
v 0.000008 34.064140 -63.327202
v -19.569175 34.064140 -60.227740
v -37.222775 34.064140 -51.232778
v -51.232750 34.064144 -37.222789
v -60.227719 34.064140 -19.569175
v -63.327175 34.064140 0.000000
v -60.227719 34.064140 19.569171
v -51.232760 34.064140 37.222768
v -37.222779 34.064140 51.232746
v -19.569175 34.064140 60.227706
v -0.000012 34.064140 63.327161
v 19.569157 34.064140 60.227699
v 37.222765 34.064144 51.232740
v 51.232740 34.064140 37.222768
v 60.227699 34.064140 19.569168
v 63.327154 34.064140 -0.000049
v 110.362971 7.357102 -35.859106
v 93.880367 7.357102 -68.208066
v 68.208066 7.357102 -93.880346
v 35.859099 7.357102 -110.362957
v 0.000000 7.357102 -116.042467
v -35.859099 7.357102 -110.362957
v -68.208045 7.357102 -93.880326
v -93.880312 7.357102 -68.208038
v -110.362922 7.357102 -35.859089
v -116.042453 7.357102 0.000000
v -110.362922 7.357102 35.859089
v -93.880312 7.357102 68.208038
v -68.208038 7.357102 93.880305
v -35.859089 7.357102 110.362915
v -0.000003 7.357102 116.042426
v 35.859078 7.357102 110.362901
v 68.208017 7.357102 93.880298
v 93.880298 7.357102 68.208031
v 110.362901 7.357102 35.859078
v 116.042426 7.357102 0.000000
vt 0.648603 0.795466
vt 0.626409 0.751908
vt 0.591842 0.717341
vt 0.548284 0.695147
vt 0.500000 0.687500
vt 0.451716 0.695147
vt 0.408159 0.717341
vt 0.373591 0.751909
vt 0.351397 0.795466
vt 0.343750 0.843750
vt 0.351397 0.892034
vt 0.373591 0.935591
vt 0.408159 0.970159
vt 0.451716 0.992353
vt 0.500000 1.000000
vt 0.548284 0.992353
vt 0.591841 0.970159
vt 0.626409 0.935591
vt 0.648603 0.892034
vt 0.656250 0.843750
vt 0.648603 0.892034
vt 0.626409 0.935591
vt 0.591841 0.970159
vt 0.548284 0.992353
vt 0.500000 1.000000
vt 0.451716 0.992353
vt 0.408159 0.970159
vt 0.373591 0.935591
vt 0.351397 0.892034
vt 0.343750 0.843750
vt 0.351397 0.795466
vt 0.373591 0.751909
vt 0.408159 0.717341
vt 0.451716 0.695147
vt 0.500000 0.687500
vt 0.548284 0.695147
vt 0.591842 0.717341
vt 0.626409 0.751908
vt 0.648603 0.795466
vt 0.656250 0.843750
vt 0.000000 0.000000
vt 1.000000 0.000000
vt 1.000000 1.000000
vt 0.000000 1.000000
vt 0.000000 0.000000
vt 1.000000 0.000000
vt 1.000000 1.000000
vt 0.000000 1.000000
vt 0.000000 0.000000
vt 1.000000 0.000000
vt 1.000000 1.000000
vt 0.000000 1.000000
vt 0.000000 0.000000
vt 1.000000 0.000000
vt 1.000000 1.000000
vt 0.000000 1.000000
vt 0.000000 0.000000
vt 1.000000 0.000000
vt 1.000000 1.000000
vt 0.000000 1.000000
vt 0.000000 0.000000
vt 1.000000 0.000000
vt 1.000000 1.000000
vt 0.000000 1.000000
vt 0.000000 0.000000
vt 1.000000 0.000000
vt 1.000000 1.000000
vt 0.000000 1.000000
vt 0.000000 0.000000
vt 1.000000 0.000000
vt 1.000000 1.000000
vt 0.000000 1.000000
vt 0.000000 0.000000
vt 1.000000 0.000000
vt 1.000000 1.000000
vt 0.000000 1.000000
vt 0.000000 0.000000
vt 1.000000 0.000000
vt 1.000000 1.000000
vt 0.000000 1.000000
vt 0.000000 0.000000
vt 1.000000 0.000000
vt 1.000000 1.000000
vt 0.000000 1.000000
vt 0.000000 0.000000
vt 1.000000 0.000000
vt 1.000000 1.000000
vt 0.000000 1.000000
vt 0.000000 0.000000
vt 1.000000 0.000000
vt 1.000000 1.000000
vt 0.000000 1.000000
vt 0.000000 0.000000
vt 1.000000 0.000000
vt 1.000000 1.000000
vt 0.000000 1.000000
vt 0.000000 0.000000
vt 1.000000 0.000000
vt 1.000000 1.000000
vt 0.000000 1.000000
vt 0.000000 0.000000
vt 1.000000 0.000000
vt 1.000000 1.000000
vt 0.000000 1.000000
vt 0.000000 0.000000
vt 1.000000 0.000000
vt 1.000000 1.000000
vt 0.000000 1.000000
vt 0.000000 0.000000
vt 1.000000 0.000000
vt 1.000000 1.000000
vt 0.000000 1.000000
vt 0.000000 0.000000
vt 1.000000 0.000000
vt 1.000000 1.000000
vt 0.000000 1.000000
vt 0.000000 0.000000
vt 1.000000 0.000000
vt 1.000000 1.000000
vt 0.000000 1.000000
vn 0.000000 1.000000 0.000000
vn 0.000000 1.000000 -0.000000
vn 0.000000 1.000000 -0.000000
vn 0.000000 1.000000 0.000000
vn 0.000000 1.000000 -0.000000
vn 0.000000 1.000000 -0.000000
vn 0.000000 1.000000 0.000000
vn 0.000000 1.000000 0.000000
vn 0.000000 1.000000 -0.000000
vn 0.000000 1.000000 -0.000000
vn 0.000000 1.000000 -0.000000
vn 0.000000 1.000000 -0.000000
vn 0.000000 1.000000 -0.000000
vn 0.000000 1.000000 -0.000000
vn -0.000000 1.000000 -0.000000
vn -0.000000 1.000000 -0.000000
vn -0.000000 1.000000 -0.000000
vn -0.000000 1.000000 -0.000000
vn 0.000000 1.000000 -0.000000
vn 0.000000 1.000000 -0.000000
vn 0.000000 1.000000 0.000000
vn 0.000000 1.000000 0.000000
vn 0.000000 1.000000 0.000000
vn 0.000000 1.000000 0.000000
vn 0.000000 1.000000 0.000000
vn 0.000000 1.000000 0.000000
vn 0.000000 1.000000 0.000000
vn 0.000000 1.000000 0.000000
vn 0.000000 1.000000 0.000000
vn 0.000000 1.000000 0.000000
vn -0.000000 1.000000 0.000000
vn -0.000000 1.000000 0.000000
vn 0.000000 1.000000 0.000000
vn 0.000000 1.000000 0.000000
vn 0.000000 1.000000 -0.000000
vn 0.000000 1.000000 -0.000000
vn 0.000000 1.000000 0.000000
vn 0.000000 1.000000 0.000000
vn 0.000000 1.000000 0.000000
vn 0.000000 1.000000 0.000000
vn 0.891007 0.000000 -0.453990
vn 0.891007 0.000000 -0.453990
vn 0.891007 0.000000 -0.453990
vn 0.891007 0.000000 -0.453990
vn 0.707106 0.000000 -0.707107
vn 0.707106 0.000000 -0.707107
vn 0.707106 0.000000 -0.707107
vn 0.707106 0.000000 -0.707107
vn 0.453990 0.000000 -0.891007
vn 0.453990 0.000000 -0.891007
vn 0.453990 0.000000 -0.891007
vn 0.453990 0.000000 -0.891007
vn 0.156434 0.000000 -0.987688
vn 0.156434 0.000000 -0.987688
vn 0.156434 0.000000 -0.987688
vn 0.156434 0.000000 -0.987688
vn -0.156434 0.000000 -0.987688
vn -0.156434 0.000000 -0.987688
vn -0.156434 0.000000 -0.987688
vn -0.156434 0.000000 -0.987688
vn -0.453991 0.000000 -0.891006
vn -0.453991 0.000000 -0.891006
vn -0.453991 0.000000 -0.891006
vn -0.453991 0.000000 -0.891006
vn -0.707107 0.000000 -0.707106
vn -0.707107 0.000000 -0.707106
vn -0.707107 0.000000 -0.707106
vn -0.707107 0.000000 -0.707106
vn -0.891007 0.000000 -0.453990
vn -0.891007 0.000000 -0.453990
vn -0.891007 0.000000 -0.453990
vn -0.891007 0.000000 -0.453990
vn -0.987688 0.000000 -0.156435
vn -0.987688 0.000000 -0.156435
vn -0.987688 0.000000 -0.156435
vn -0.987688 0.000000 -0.156435
vn -0.987688 0.000000 0.156435
vn -0.987688 0.000000 0.156435
vn -0.987688 0.000000 0.156435
vn -0.987688 0.000000 0.156435
vn -0.891007 0.000000 0.453990
vn -0.891007 0.000000 0.453990
vn -0.891007 0.000000 0.453990
vn -0.891007 0.000000 0.453990
vn -0.707107 0.000000 0.707107
vn -0.707107 0.000000 0.707107
vn -0.707107 0.000000 0.707107
vn -0.707107 0.000000 0.707107
vn -0.453990 0.000000 0.891007
vn -0.453990 0.000000 0.891007
vn -0.453990 0.000000 0.891007
vn -0.453990 0.000000 0.891007
vn -0.156434 0.000000 0.987688
vn -0.156434 0.000000 0.987688
vn -0.156434 0.000000 0.987688
vn -0.156434 0.000000 0.987688
vn 0.156434 0.000000 0.987688
vn 0.156434 0.000000 0.987688
vn 0.156434 0.000000 0.987688
vn 0.156434 0.000000 0.987688
vn 0.453990 0.000000 0.891007
vn 0.453990 0.000000 0.891007
vn 0.453990 0.000000 0.891007
vn 0.453990 0.000000 0.891007
vn 0.707107 0.000000 0.707107
vn 0.707107 0.000000 0.707107
vn 0.707107 0.000000 0.707107
vn 0.707107 0.000000 0.707107
vn 0.891007 0.000000 0.453990
vn 0.891007 0.000000 0.453990
vn 0.891007 0.000000 0.453990
vn 0.891007 0.000000 0.453990
vn 0.987688 0.000000 0.156435
vn 0.987688 0.000000 0.156435
vn 0.987688 0.000000 0.156435
vn 0.987688 0.000000 0.156435
vn 0.987689 0.000000 -0.156433
vn 0.987689 0.000000 -0.156433
vn 0.987689 0.000000 -0.156433
vn 0.987689 0.000000 -0.156433
s 1
g pCylinder2
f 1/19/1 2/18/2 22/22/3 21/21/4
f 2/18/2 3/17/5 23/23/6 22/22/3
f 3/17/5 4/16/7 24/24/8 23/23/6
f 4/16/7 5/15/9 25/25/10 24/24/8
f 5/15/9 6/14/11 26/26/12 25/25/10
f 6/14/11 7/13/13 27/27/14 26/26/12
f 7/13/13 8/12/15 28/28/16 27/27/14
f 8/12/15 9/11/17 29/29/18 28/28/16
f 9/11/17 10/10/19 30/30/20 29/29/18
f 10/10/19 11/9/21 31/31/22 30/30/20
f 11/9/21 12/8/23 32/32/24 31/31/22
f 12/8/23 13/7/25 33/33/26 32/32/24
f 13/7/25 14/6/27 34/34/28 33/33/26
f 14/6/27 15/5/29 35/35/30 34/34/28
f 15/5/29 16/4/31 36/36/32 35/35/30
f 16/4/31 17/3/33 37/37/34 36/36/32
f 17/3/33 18/2/35 38/38/36 37/37/34
f 18/2/35 19/1/37 39/39/38 38/38/36
f 19/1/37 20/20/39 40/40/40 39/39/38
f 20/20/39 1/19/1 21/21/4 40/40/40
s off
f 2/41/41 1/42/42 41/43/43 42/44/44
f 3/45/45 2/46/46 42/47/47 43/48/48
f 4/49/49 3/50/50 43/51/51 44/52/52
f 5/53/53 4/54/54 44/55/55 45/56/56
f 6/57/57 5/58/58 45/59/59 46/60/60
f 7/61/61 6/62/62 46/63/63 47/64/64
f 8/65/65 7/66/66 47/67/67 48/68/68
f 9/69/69 8/70/70 48/71/71 49/72/72
f 10/73/73 9/74/74 49/75/75 50/76/76
f 11/77/77 10/78/78 50/79/79 51/80/80
f 12/81/81 11/82/82 51/83/83 52/84/84
f 13/85/85 12/86/86 52/87/87 53/88/88
f 14/89/89 13/90/90 53/91/91 54/92/92
f 15/93/93 14/94/94 54/95/95 55/96/96
f 16/97/97 15/98/98 55/99/99 56/100/100
f 17/101/101 16/102/102 56/103/103 57/104/104
f 18/105/105 17/106/106 57/107/107 58/108/108
f 19/109/109 18/110/110 58/111/111 59/112/112
f 20/113/113 19/114/114 59/115/115 60/116/116
f 1/117/117 20/118/118 60/119/119 41/120/120
