# This file uses centimeters as units for non-parametric coordinates.

g default
v 0.638652 0.638652 -1.479467
v 0.000000 0.903191 -1.479467
v -0.638652 0.638652 -1.479467
v -0.903191 0.000000 -1.479467
v -0.638652 -0.638652 -1.479467
v 0.000000 -0.903191 -1.479467
v 0.638652 -0.638652 -1.479467
v 0.903191 0.000000 -1.479467
v 0.000000 0.000000 -1.479467
v 0.000000 0.000000 3.476247
v 0.638652 0.638652 3.223917
v 0.000000 0.903191 3.223917
v -0.638652 0.638652 3.223917
v -0.903191 -0.000000 3.223917
v -0.638652 -0.638652 3.223917
v 0.000000 -0.903191 3.223917
v 0.638652 -0.638652 3.223917
v 0.903191 -0.000000 3.223917
v 0.715143 0.715142 3.228503
v 0.000000 1.011364 3.228503
v -0.000000 1.034092 3.471655
v 0.731213 0.731213 3.471655
v -0.715142 0.715142 3.228503
v -0.731213 0.731213 3.471655
v -1.011364 0.000000 3.228503
v -1.034091 -0.000000 3.471655
v -0.715143 -0.715142 3.228503
v -0.731213 -0.731213 3.471655
v -0.000000 -1.011364 3.228503
v 0.000000 -1.034092 3.471655
v 0.715143 -0.715142 3.228503
v 0.731213 -0.731213 3.471655
v 1.011364 -0.000000 3.228503
v 1.034091 -0.000000 3.471655
v 0.638652 0.638652 1.979778
v 0.000000 0.903191 1.979778
v -0.638652 0.638652 1.979778
v -0.903191 -0.000000 1.979778
v -0.638652 -0.638652 1.979778
v 0.000000 -0.903191 1.979778
v 0.638652 -0.638652 1.979778
v 0.903191 -0.000000 1.979778
vt 0.399514 0.497569
vt 0.459558 0.558054
vt 0.544816 0.558229
vt 0.605236 0.497974
vt 0.605236 0.412691
vt 0.545050 0.352436
vt 0.459874 0.352295
vt 0.399514 0.412288
vt 0.000000 0.372722
vt 0.001205 0.322859
vt 0.001641 0.276688
vt 0.001956 0.230576
vt 0.002168 0.184517
vt 0.002283 0.138480
vt 0.002307 0.092417
vt 0.002288 0.046309
vt 0.002253 0.000170
vt 0.502354 0.455182
vt 0.167729 0.490870
vt 0.251451 0.000000
vt 0.968408 0.660652
vt 0.968240 0.578072
vt 0.968053 0.495488
vt 0.968216 0.412908
vt 0.968230 0.330326
vt 0.968216 0.247744
vt 0.968056 0.165164
vt 0.968243 0.082580
vt 0.981902 0.660652
vt 0.981722 0.578072
vt 0.999999 0.377777
vt 0.285518 0.539661
vt 0.981524 0.495488
vt 0.999999 0.323809
vt 0.981699 0.412909
vt 1.000000 0.269841
vt 0.981709 0.330326
vt 0.999999 0.215873
vt 0.981699 0.247744
vt 0.999999 0.161905
vt 0.981523 0.165165
vt 0.999999 0.107937
vt 0.981720 0.082580
vt 0.999999 0.053968
vt 0.981902 0.000000
vt 0.251525 0.046176
vt 0.253073 0.371397
vt 0.968413 -0.000000
vt 0.251653 0.092348
vt 0.251840 0.138562
vt 0.252068 0.184860
vt 0.252320 0.231263
vt 0.252579 0.277793
vt 0.252842 0.324487
vt 0.285520 0.442080
vt 0.999999 0.431746
vt 0.999999 -0.000000
vt 0.216520 0.373082
vt 0.118941 0.373079
vt 0.049941 0.442079
vt 0.049939 0.539658
vt 0.118938 0.608659
vt 0.216517 0.608661
vt 0.983420 0.431746
vt 0.983420 0.377777
vt 0.983419 0.323809
vt 0.983419 0.269841
vt 0.983419 0.215873
vt 0.983419 0.161905
vt 0.983419 0.107937
vt 0.983419 0.053969
vt 0.983419 -0.000000
vt 0.168312 0.000057
vt 0.168641 0.371839
vt 0.168890 0.323944
vt 0.168860 0.277425
vt 0.168792 0.231034
vt 0.168695 0.184746
vt 0.168581 0.138535
vt 0.168465 0.092371
vt 0.168373 0.046220
vn 0.000000 0.000000 -1.000000
vn 0.000000 0.000000 -1.000000
vn 0.000000 0.000000 -1.000000
vn 0.000000 0.000000 -1.000000
vn 0.000000 0.000000 -1.000000
vn 0.000000 0.000000 -1.000000
vn 0.000000 0.000000 -1.000000
vn 0.000000 0.000000 -1.000000
vn 0.000000 0.000000 -1.000000
vn 0.704039 0.704037 -0.093063
vn 0.000000 0.995660 -0.093063
vn -0.000000 0.995660 -0.093063
vn 0.704038 0.704038 -0.093063
vn -0.704038 0.704038 -0.093063
vn -0.704038 0.704038 -0.093063
vn -0.995660 -0.000000 -0.093063
vn -0.995660 -0.000000 -0.093063
vn -0.704038 -0.704038 -0.093063
vn -0.704038 -0.704038 -0.093063
vn -0.000000 -0.995660 -0.093063
vn 0.000000 -0.995660 -0.093063
vn 0.704038 -0.704038 -0.093063
vn 0.704037 -0.704039 -0.093063
vn 0.995660 -0.000000 -0.093063
vn 0.995660 -0.000000 -0.093063
vn -0.000000 0.000000 1.000000
vn -0.000000 -0.004440 0.999990
vn 0.003140 -0.003140 0.999990
vn 0.000000 0.004441 0.999990
vn -0.003140 0.003140 0.999990
vn -0.004441 0.000000 0.999990
vn -0.003140 -0.003140 0.999990
vn 0.004441 -0.000000 0.999990
vn 0.003140 0.003140 0.999990
vn 0.707107 0.707107 -0.000000
vn 0.000000 1.000000 -0.000000
vn 0.000000 1.000000 -0.000000
vn 0.707107 0.707107 -0.000000
vn -0.707107 0.707107 0.000000
vn -0.707107 0.707107 -0.000000
vn -1.000000 0.000000 0.000000
vn -1.000000 0.000000 -0.000000
vn -0.707107 -0.707107 -0.000000
vn -0.707107 -0.707107 -0.000000
vn -0.000000 -1.000000 0.000000
vn 0.000000 -1.000000 -0.000000
vn 0.707107 -0.707107 0.000000
vn 0.707107 -0.707107 -0.000000
vn 1.000000 0.000000 0.000000
vn 1.000000 -0.000000 0.000000
vn 0.029952 0.029952 -0.999102
vn 0.000000 0.042359 -0.999102
vn 0.000000 0.042359 -0.999102
vn 0.029952 0.029952 -0.999103
vn -0.029952 0.029953 -0.999102
vn -0.029952 0.029953 -0.999102
vn -0.042359 0.000000 -0.999102
vn -0.042359 0.000000 -0.999102
vn -0.029952 -0.029952 -0.999102
vn -0.029952 -0.029952 -0.999102
vn 0.000000 -0.042358 -0.999102
vn -0.000000 -0.042358 -0.999102
vn 0.029952 -0.029952 -0.999102
vn 0.029952 -0.029952 -0.999102
vn 0.042359 -0.000000 -0.999102
vn 0.042359 -0.000000 -0.999102
vn 0.707107 0.707107 0.000000
vn 0.000000 1.000000 0.000000
vn -0.707107 0.707107 0.000000
vn -1.000000 -0.000000 0.000000
vn -0.707107 -0.707107 0.000000
vn -0.000000 -1.000000 0.000000
vn 0.707107 -0.707107 0.000000
vn 1.000000 0.000000 0.000000
s 1
g pCylinder35 shotgun
f 2/2/1 1/1/2 9/18/3
f 3/3/4 2/2/1 9/18/3
f 4/4/5 3/3/4 9/18/3
f 5/5/6 4/4/5 9/18/3
f 6/6/7 5/5/6 9/18/3
f 7/7/8 6/6/7 9/18/3
f 8/8/9 7/7/8 9/18/3
f 1/1/2 8/8/9 9/18/3
s 2
f 19/64/10 20/65/11 21/31/12 22/56/13
f 20/65/11 23/66/14 24/34/15 21/31/12
f 23/66/14 25/67/16 26/36/17 24/34/15
f 25/67/16 27/68/18 28/38/19 26/36/17
f 27/68/18 29/69/20 30/40/21 28/38/19
f 29/69/20 31/70/22 32/42/23 30/40/21
f 31/70/22 33/71/24 34/44/25 32/42/23
f 33/71/24 19/72/10 22/57/13 34/44/25
s 3
f 10/19/26 30/59/27 32/58/28
f 10/19/26 21/63/29 24/62/30
f 10/19/26 24/62/30 26/61/31
f 10/19/26 26/61/31 28/60/32
f 10/19/26 28/60/32 30/59/27
f 10/19/26 32/58/28 34/55/33
f 10/19/26 34/55/33 22/32/34
f 10/19/26 22/32/34 21/63/29
s 5
f 35/74/35 36/75/36 12/54/37 11/47/38
f 36/75/36 37/76/39 13/53/40 12/54/37
f 37/76/39 38/77/41 14/52/42 13/53/40
f 38/77/41 39/78/43 15/51/44 14/52/42
f 39/78/43 40/79/45 16/50/46 15/51/44
f 40/79/45 41/80/47 17/49/48 16/50/46
f 41/80/47 42/81/49 18/46/50 17/49/48
f 42/81/49 35/73/35 11/20/38 18/46/50
s 6
f 11/21/51 12/22/52 20/30/53 19/29/54
f 12/22/52 13/23/55 23/33/56 20/30/53
f 13/23/55 14/24/57 25/35/58 23/33/56
f 14/24/57 15/25/59 27/37/60 25/35/58
f 15/25/59 16/26/61 29/39/62 27/37/60
f 16/26/61 17/27/63 31/41/64 29/39/62
f 17/27/63 18/28/65 33/43/66 31/41/64
f 18/28/65 11/48/51 19/45/54 33/43/66
s 5
f 1/9/67 2/10/68 36/75/36 35/74/35
f 2/10/68 3/11/69 37/76/39 36/75/36
f 3/11/69 4/12/70 38/77/41 37/76/39
f 4/12/70 5/13/71 39/78/43 38/77/41
f 5/13/71 6/14/72 40/79/45 39/78/43
f 6/14/72 7/15/73 41/80/47 40/79/45
f 7/15/73 8/16/74 42/81/49 41/80/47
f 8/16/74 1/17/67 35/73/35 42/81/49
